<svg xmlns="http://www.w3.org/2000/svg" viewBox="0 0 24 24">
  <defs>
    <clipPath id="circle">
      <circle cx="12" cy="12" r="12"/>
    </clipPath>
  </defs>
  <g clip-path="url(#circle)">
    <circle cx="12" cy="12" r="12" fill="#000" stroke="none"/>
    <g fill="none" stroke="#fff" stroke-width="2" stroke-linecap="round" stroke-linejoin="round" transform="translate(12,12) scale(0.75) translate(-12,-12)">
      <path d="M11 21.73a2 2 0 0 0 2 0l7-4A2 2 0 0 0 21 16V8a2 2 0 0 0-1-1.73l-7-4a2 2 0 0 0-2 0l-7 4A2 2 0 0 0 3 8v8a2 2 0 0 0 1 1.73z"/>
      <path d="M12 22V12"/>
      <path d="m3.3 7 7.703 4.734a2 2 0 0 0 1.994 0L20.7 7"/>
      <path d="m7.5 4.27 9 5.15"/>
    </g>
  </g>
</svg>
